<svg width="110" height="99" viewBox="0 0 110 99" fill="none" xmlns="http://www.w3.org/2000/svg">
<path d="M100.218 0H9.78651C4.38943 0 0 4.3876 0 9.78244V19.5456C0 20.4476 0.730497 21.1778 1.63502 21.1778C2.53955 21.1778 3.2679 20.4476 3.2679 19.5456V9.78244C3.2679 6.18946 6.19204 3.26654 9.78651 3.26654H100.218C103.812 3.26654 106.736 6.18946 106.736 9.78244V64.199H91.8149C90.9125 64.199 90.182 64.9314 90.182 65.8334C90.182 66.7354 90.9125 67.4677 91.8149 67.4677H106.736V71.2776C106.736 74.8706 103.812 77.7935 100.218 77.7935H9.78651C6.19204 77.7935 3.2679 74.8706 3.2679 71.2776V67.4677H86.3706C87.2729 67.4677 88.0034 66.7354 88.0034 65.8334C88.0034 64.9314 87.2729 64.199 86.3706 64.199H3.2679V24.9898C3.2679 24.0878 2.5374 23.3554 1.63502 23.3554C0.732646 23.3554 0 24.0878 0 24.9898V71.2755C0 76.6703 4.38943 81.0579 9.78651 81.0579H37.4186L32.4878 94.7769H21.2145C20.3121 94.7769 19.5795 95.5071 19.5795 96.4091C19.5795 97.3111 20.31 98.0435 21.2145 98.0435H88.7855C89.6879 98.0435 90.4205 97.3111 90.4205 96.4091C90.4205 95.5071 89.69 94.7769 88.7855 94.7769H77.5122L72.5813 81.0579H100.213C105.611 81.0579 110 76.6703 110 71.2755V9.78244C110 4.3876 105.611 0 100.213 0H100.218ZM74.0423 94.7748H35.962L40.8928 81.0558H69.1136L74.0445 94.7748H74.0423Z" fill="#1C1C1C"/>
<path d="M36.7401 25.4385C36.7401 23.9994 35.2247 23.1172 34.1393 23.1172C33.129 23.1172 32.2649 23.6635 31.7618 24.6307L21.8471 44.5383C21.63 44.8933 21.5215 45.3163 21.5215 45.7989C21.5215 47.1657 22.4253 48.1202 23.7215 48.1202H32.8264V52.8032C32.8264 54.0787 33.9368 55.0012 35.4689 55.0012C37.001 55.0012 38.1114 54.0765 38.1114 52.8032V48.1202H39.2907C40.3344 48.1202 41.449 47.0722 41.449 45.5119C41.449 43.9516 40.541 42.9036 39.2907 42.9036H38.1114V36.9919C38.1114 35.7207 37.0239 34.8343 35.4689 34.8343C33.9138 34.8343 32.8264 35.7207 32.8264 36.9919V42.9036H28.3637L36.4666 26.478C36.6566 26.1421 36.7421 25.8211 36.7421 25.4406L36.7401 25.4385Z" fill="#1C1C1C"/>
<path d="M64.566 45.7291V33.1864C64.566 26.7864 61.0715 23.1172 54.9811 23.1172C48.8906 23.1172 45.4355 26.7885 45.4355 33.1864V45.7291C45.4355 52.1291 48.9155 55.7983 54.9811 55.7983C61.0466 55.7983 64.566 52.1291 64.566 45.7291ZM50.6876 45.7291V33.1864C50.6876 29.8696 52.0925 28.2567 54.979 28.2567C57.8655 28.2567 59.3118 29.8696 59.3118 33.1864V45.7291C59.3118 49.0459 57.8945 50.6589 54.979 50.6589C52.0634 50.6589 50.6876 49.0459 50.6876 45.7291Z" fill="#1C1C1C"/>
<path d="M83.7694 25.4385C83.7694 23.9994 82.254 23.1172 81.1686 23.1172C80.1583 23.1172 79.2942 23.6635 78.7911 24.6307L68.8764 44.5383C68.6593 44.8933 68.5508 45.3163 68.5508 45.7989C68.5508 47.1657 69.4546 48.1202 70.7508 48.1202H79.8556V52.8032C79.8556 54.0787 80.9661 55.0012 82.4982 55.0012C84.0303 55.0012 85.1407 54.0765 85.1407 52.8032V48.1202H86.32C87.3637 48.1202 88.4783 47.0722 88.4783 45.5119C88.4783 43.9516 87.5703 42.9036 86.32 42.9036H85.1407V36.9919C85.1407 35.7207 84.0532 34.8343 82.4982 34.8343C80.9431 34.8343 79.8556 35.7207 79.8556 36.9919V42.9036H75.393L83.4938 26.478C83.6838 26.1421 83.7694 25.8211 83.7694 25.4406V25.4385Z" fill="#1C1C1C"/>
</svg>
